<svg width="81" height="81" viewBox="0 0 81 81" fill="none" xmlns="http://www.w3.org/2000/svg">
<path d="M53.7078 57.3945L60.5966 50.503C61.5244 49.5863 62.6983 48.9588 63.9758 48.6966C65.2532 48.4345 66.5793 48.549 67.7929 49.0262L76.1886 52.3797C77.4151 52.8777 78.4667 53.7278 79.211 54.8228C79.9553 55.9178 80.359 57.2087 80.3711 58.5329V73.9158C80.364 74.8166 80.1747 75.7066 79.8147 76.5322C79.4546 77.3579 78.9313 78.1021 78.2762 78.7201C77.6211 79.3381 76.8478 79.8171 76.0028 80.1282C75.1578 80.4393 74.2586 80.5762 73.3593 80.5305C14.5279 76.8693 2.65705 27.0286 0.41205 7.95376C0.307835 7.01705 0.403053 6.06889 0.691439 5.17164C0.979826 4.27438 1.45484 3.44839 2.08525 2.74798C2.71565 2.04758 3.48714 1.48864 4.34898 1.10794C5.21082 0.727238 6.14346 0.533404 7.08556 0.539188H21.9395C23.265 0.543113 24.559 0.943659 25.6551 1.68931C26.7512 2.43495 27.5993 3.4916 28.0902 4.72335L31.4423 13.1224C31.9351 14.3317 32.0609 15.6595 31.8038 16.9399C31.5467 18.2203 30.9183 19.3965 29.9969 20.3216L23.1081 27.2132C23.1081 27.2132 27.0753 54.0718 53.7078 57.3945Z" fill="white"/>
</svg>
